<svg xmlns="http://www.w3.org/2000/svg" width="24" height="24" fill="#fff" viewBox="0 0 30.066 30.011">
  <path d="M22.516 19.93a3 3 0 0 0-4.25 0l-1.45 1.45a26.14 26.14 0 0 1-4.51-3.62 26.14 26.14 0 0 1-3.62-4.51l1.45-1.45a3 3 0 0 0 0-4.25l-2.83-2.82a2.93 2.93 0 0 0-2.11-.88 3 3 0 0 0-2.13.88l-1.36 1.35a6.37 6.37 0 0 0-1.64 5.25c.32 3.75 2.78 8.26 6.57 12.06s8.35 6.25 12.1 6.61a7.87 7.87 0 0 0 .84 0 6.07 6.07 0 0 0 4.41-1.64l1.35-1.36a3 3 0 0 0 .88-2.13 2.93 2.93 0 0 0-.88-2.11Zm3.15-15.54A14.92 14.92 0 0 0 15.066 0a1 1 0 0 0 0 2 13 13 0 0 1 13 13.11 1 1 0 1 0 2 0 14.91 14.91 0 0 0-4.4-10.72Z"/>
  <path d="M19.976 10.11a6 6 0 0 1 1.77 4.31 1 1 0 0 0 2 0 8 8 0 0 0-8-8.1 1 1 0 0 0 0 2 6 6 0 0 1 4.23 1.79Z"/>
</svg>